<?xml version="1.0" encoding="UTF-8" standalone="no"?>
<!DOCTYPE svg PUBLIC "-//W3C//DTD SVG 1.0//EN" "http://www.w3.org/TR/2001/REC-SVG-20010904/DTD/ svg10.dtd">
<svg
  xmlns="http://www.w3.org/2000/svg"
	xmlns:xlink="http://www.w3.org/1999/xlink"
	width="100px"
	height="100px"
	viewBox="-5 -5 128 128">
		<g>
			<g>
				<polygon fill="#C5F2FB" points="71.8930664,60.8046875 61.8930664,60.8046875 95.8334961,26.8632813 "/>
				<polygon fill="#C5F2FB" points="61.8930664,50.8046875 61.8930664,60.8046875 27.9516602,26.8642578 "/>
				<polygon fill="#C5F2FB" points="51.8930664,60.8046875 61.8930664,60.8046875 27.9526367,94.7460938 "/>
				<polygon fill="#C5F2FB" points="61.8930664,70.8046875 61.8930664,60.8046875 95.8344727,94.7451172 "/>
			</g>
			<g>
				<polygon fill="#4291E4" points="51.8930664,60.8046875 61.8930664,60.8046875 27.9521484,26.8632813 "/>
				<polygon fill="#4291E4" points="61.8930664,50.8046875 61.8930664,60.8046875 95.8344727,26.8642578 "/>
				<polygon fill="#4291E4" points="71.8930664,60.8046875 61.8930664,60.8046875 95.8334961,94.7460938 "/>
				<polygon fill="#4291E4" points="61.8930664,70.8046875 61.8930664,60.8046875 27.9516602,94.7451172 "/>
			</g>
			<polygon fill="none" stroke="#000000" stroke-width="0.5" stroke-miterlimit="100" points="61.8930664,50.8046875
				95.8344727,26.8632813 71.8930664,60.8046875 95.8344727,94.7460938 61.8930664,70.8046875 27.9521484,94.7460938
				51.8930664,60.8046875 27.9521484,26.8632813 "/>
		</g>
		<g>
			<g>
				<polygon fill="#D4E5F7" points="71.8930664,50.8046875 61.8930664,60.8046875 61.8930664,12.8046875 "/>
				<polygon fill="#D4E5F7" points="13.8930664,60.8046875 61.8930664,60.8046875 51.8930664,50.8046875 "/>
				<polygon fill="#D4E5F7" points="61.8930664,108.8046875 61.8930664,60.8046875 51.8930664,70.8046875 "/>
				<polygon fill="#D4E5F7" points="109.8930664,60.8046875 61.8930664,60.8046875 71.8930664,70.8046875 "/>
			</g>
			<g>
				<polygon fill="#0D0BA9" points="51.8930664,50.8046875 61.8930664,60.8046875 61.8930664,12.8046875 "/>
				<polygon fill="#0D0BA9" points="109.8930664,60.8046875 61.8930664,60.8046875 71.8930664,50.8046875 "/>
				<polygon fill="#0D0BA9" points="61.8930664,108.8046875 61.8930664,60.8046875 71.8930664,70.8046875 "/>
				<polygon fill="#0D0BA9" points="13.8930664,60.8046875 61.8930664,60.8046875 51.8930664,70.8046875 "/>
			</g>
			<polygon fill="none" stroke="#000000" stroke-width="0.5" points="71.8930664,50.8046875 109.8930664,60.8046875
				71.8930664,70.8046875 61.8930664,108.8046875 51.8930664,70.8046875 13.8935547,60.8046875 51.8930664,50.8046875
				61.8930664,12.8046875 "/>
		</g>
		<g>
			<polyline fill="none" stroke="#000000" stroke-width="0.5" points="61.8930664,60.8046875 61.8930664,12.8046875
				61.8930664,108.8046875 "/>
			<line fill="none" stroke="#000000" stroke-width="0.5" x1="109.8930664" y1="60.8046875" x2="13.8935547" y2="60.8046875"/>
			<line fill="none" stroke="#000000" stroke-width="0.5" x1="95.8344727" y1="26.8632813" x2="27.9521484" y2="94.7460938"/>
			<polyline fill="none" stroke="#000000" stroke-width="0.5" points="61.8930664,60.8046875 27.9521484,26.8632813
				95.8344727,94.7460938 "/>
		</g>
		<g>
			<path d="M11.7841797,56v0.203125c-0.1484375,0.0117188-0.2724609,0.0546875-0.3730469,0.1269531
				c-0.1015625,0.0722656-0.1904297,0.1826172-0.2675781,0.3320313c-0.0234375,0.046875-0.1455078,0.3496094-0.3662109,0.9091797
				L8.2822266,64.125H8.0537109l-1.9658203-5.1621094L3.9121094,64.125H3.7148438l-2.625-6.4882813
				c-0.265625-0.65625-0.4511719-1.0537109-0.5566406-1.1914063S0.25,56.2265625,0,56.203125V56h3.4375v0.203125
				c-0.2773438,0.0078125-0.4619141,0.0507813-0.5537109,0.1269531c-0.0917969,0.0771484-0.1376953,0.1728516-0.1376953,0.2871094
				c0,0.1503906,0.0957031,0.4677734,0.2871094,0.953125l1.5595703,3.8544922l1.2558594-3.0263672l-0.3212891-0.8339844
				c-0.1796875-0.4628906-0.3183594-0.7724609-0.4160156-0.9277344s-0.2099609-0.2666016-0.3369141-0.3330078
				c-0.1269531-0.0673828-0.3134766-0.1005859-0.5595703-0.1005859V56h3.8378906v0.203125
				c-0.2695313,0.0039063-0.4628906,0.0253906-0.5800781,0.0654297c-0.0820313,0.0273438-0.1464844,0.0742188-0.1933594,0.1386719
				c-0.046875,0.0654297-0.0703125,0.1396484-0.0703125,0.2226563c0,0.0908203,0.0878906,0.3691406,0.2636719,0.8349609
				l1.4482422,3.7607422l1.2958984-3.4033203c0.1367188-0.3554688,0.2207031-0.5976563,0.2519531-0.7265625
				c0.03125-0.1308594,0.046875-0.25,0.046875-0.3613281c0-0.1611328-0.0546875-0.2880859-0.1640625-0.3808594
				c-0.109375-0.0917969-0.3183594-0.1425781-0.6269531-0.1503906V56H11.7841797z"/>
		</g>
		<g>
			<path d="M117.8530273,55.875c1.2675781-0.046875,2.2978516,0.3222656,3.0908203,1.1074219
				c0.7919922,0.7841797,1.1884766,1.7666016,1.1884766,2.9453125c0,1.0078125-0.2958984,1.8935547-0.8867188,2.6591797
				c-0.7822266,1.0146484-1.8876953,1.5224609-3.3164063,1.5224609c-1.4326172,0-2.5400391-0.484375-3.3222656-1.4521484
				c-0.6181641-0.765625-0.9277344-1.6728516-0.9277344-2.7236328c0-1.1787109,0.4023438-2.1621094,1.2060547-2.9492188
				C115.6899414,56.1982422,116.6782227,55.828125,117.8530273,55.875z M117.9233398,56.25
				c-0.7314453,0-1.2880859,0.3710938-1.6689453,1.1132813c-0.3105469,0.609375-0.4658203,1.484375-0.4658203,2.6240234
				c0,1.3554688,0.2392578,2.3564453,0.7197266,3.0048828c0.3339844,0.453125,0.8017578,0.6796875,1.4033203,0.6796875
				c0.4052734,0,0.7431641-0.0976563,1.0146484-0.2929688c0.3457031-0.25,0.6152344-0.6484375,0.8076172-1.1972656
				s0.2890625-1.2646484,0.2890625-2.1474609c0-1.0498047-0.0986328-1.8359375-0.2949219-2.3574219
				s-0.4472656-0.8896484-0.7519531-1.1044922S118.3208008,56.25,117.9233398,56.25z"/>
		</g>
		<g>
			<path d="M64.1811523,111.828125l0.0625,2.65625h-0.234375c-0.1132813-0.6660156-0.3916016-1.203125-0.8339844-1.609375
				s-0.9208984-0.609375-1.4355469-0.609375c-0.3984375,0-0.7128906,0.1074219-0.9453125,0.3183594
				c-0.2314453,0.2128906-0.3476563,0.4589844-0.3476563,0.734375c0,0.1757813,0.0410156,0.3320313,0.1230469,0.46875
				c0.1123047,0.1835938,0.2939453,0.3652344,0.5439453,0.5429688c0.1826172,0.1289063,0.6054688,0.3574219,1.2685547,0.6855469
				c0.9277344,0.4570313,1.5546875,0.8867188,1.8798828,1.2929688c0.3203125,0.4042969,0.4814453,0.8691406,0.4814453,1.390625
				c0,0.6621094-0.2587891,1.2324219-0.7773438,1.7109375c-0.5175781,0.4765625-1.1748047,0.7148438-1.9726563,0.7148438
				c-0.25,0-0.4873047-0.0253906-0.7099609-0.0761719s-0.5019531-0.1484375-0.8378906-0.2890625
				c-0.1875-0.0800781-0.3417969-0.1191406-0.4628906-0.1191406c-0.1025391,0-0.2099609,0.0410156-0.3232422,0.1191406
				c-0.1132813,0.0800781-0.2050781,0.2011719-0.2753906,0.3652344h-0.203125v-3h0.203125
				c0.171875,0.84375,0.5029297,1.4863281,0.9931641,1.9296875s1.0195313,0.6640625,1.5859375,0.6640625
				c0.4375,0,0.7871094-0.1191406,1.046875-0.3554688c0.2597656-0.2382813,0.3896484-0.515625,0.3896484-0.8320313
				c0-0.1875-0.0498047-0.3671875-0.1494141-0.5429688s-0.25-0.34375-0.453125-0.5
				c-0.203125-0.1582031-0.5615234-0.3652344-1.0761719-0.6191406c-0.7207031-0.3535156-1.2402344-0.65625-1.5566406-0.90625
				c-0.3164063-0.2480469-0.5585938-0.5273438-0.7285156-0.8359375s-0.2548828-0.6464844-0.2548828-1.0175781
				c0-0.6308594,0.2314453-1.1699219,0.6962891-1.6132813c0.4648438-0.4453125,1.0498047-0.6679688,1.7558594-0.6679688
				c0.2578125,0,0.5068359,0.03125,0.7490234,0.09375c0.1835938,0.046875,0.4072266,0.1347656,0.6699219,0.2617188
				C63.315918,112.3125,63.5004883,112.375,63.605957,112.375c0.1005859,0,0.1806641-0.03125,0.2392578-0.09375
				s0.1132813-0.2128906,0.1640625-0.453125H64.1811523z"/>
		</g>
		<g>
			<path d="M60.621582,0l3.9101563,4.8955078V1.515625c0-0.4824219-0.0703125-0.8095703-0.2070313-0.9804688
				c-0.1894531-0.2285156-0.5058594-0.3398438-0.9492188-0.3320313V0h2.640625v0.203125
				c-0.3378906,0.0439453-0.5644531,0.0996094-0.6796875,0.1699219c-0.1152344,0.0683594-0.2070313,0.1816406-0.2714844,0.3378906
				s-0.0957031,0.4248047-0.0957031,0.8046875V8.125h-0.2011719l-5.3613281-6.5878906V6.5625
				c0,0.4658203,0.1054688,0.7792969,0.3164063,0.9433594C59.9360352,7.6679688,60.1782227,7.75,60.449707,7.75h0.1914063v0.203125
				h-2.828125V7.75c0.4375-0.0039063,0.7421875-0.0957031,0.9140625-0.2744141S58.9848633,6.9921875,58.9848633,6.5625V0.9921875
				l-0.1894531-0.2324219c-0.1679688-0.2226563-0.3164063-0.3691406-0.4453125-0.4394531
				c-0.1289063-0.0693359-0.3144531-0.109375-0.5566406-0.1171875V0H60.621582z"/>
		</g>
		<g>
			<path d="M98.3754883,13.5l3.9091797,4.8955078V15.015625c0-0.4824219-0.0683594-0.8095703-0.2070313-0.9804688
				c-0.1884766-0.2285156-0.5048828-0.3398438-0.9492188-0.3320313V13.5h2.640625v0.203125
				c-0.3378906,0.0439453-0.5634766,0.0996094-0.6796875,0.1699219c-0.1152344,0.0683594-0.2050781,0.1816406-0.2705078,0.3378906
				c-0.0644531,0.15625-0.0966797,0.4248047-0.0966797,0.8046875V21.625h-0.2011719l-5.3613281-6.5878906V20.0625
				c0,0.4658203,0.1054688,0.7792969,0.3173828,0.9433594C97.6889648,21.1679688,97.9311523,21.25,98.2045898,21.25h0.1894531
				v0.203125h-2.828125V21.25c0.4375-0.0039063,0.7421875-0.0957031,0.9140625-0.2744141S96.737793,20.4921875,96.737793,20.0625
				v-5.5703125l-0.1884766-0.2324219c-0.1679688-0.2226563-0.3164063-0.3691406-0.4453125-0.4394531
				c-0.1289063-0.0693359-0.3144531-0.109375-0.5566406-0.1171875V13.5H98.3754883z"/>
			<path d="M108.6870117,13.375c1.2675781-0.046875,2.2978516,0.3222656,3.0908203,1.1074219
				c0.7919922,0.7841797,1.1884766,1.7666016,1.1884766,2.9453125c0,1.0078125-0.2958984,1.8935547-0.8867188,2.6591797
				c-0.7822266,1.0146484-1.8886719,1.5224609-3.3164063,1.5224609c-1.4326172,0-2.5400391-0.484375-3.3222656-1.4521484
				c-0.6191406-0.765625-0.9277344-1.6728516-0.9277344-2.7236328c0-1.1787109,0.4023438-2.1621094,1.2060547-2.9492188
				C106.5239258,13.6982422,107.5131836,13.328125,108.6870117,13.375z M108.7573242,13.75
				c-0.7314453,0-1.2871094,0.3710938-1.6689453,1.1132813c-0.3105469,0.609375-0.4658203,1.484375-0.4658203,2.6240234
				c0,1.3554688,0.2402344,2.3564453,0.7197266,3.0048828c0.3339844,0.453125,0.8017578,0.6796875,1.4033203,0.6796875
				c0.4042969,0,0.7431641-0.0976563,1.0146484-0.2929688c0.3457031-0.25,0.6152344-0.6484375,0.8076172-1.1972656
				s0.2890625-1.2646484,0.2890625-2.1474609c0-1.0498047-0.0986328-1.8359375-0.2949219-2.3574219
				c-0.1972656-0.5214844-0.4472656-0.8896484-0.7519531-1.1044922S109.1538086,13.75,108.7573242,13.75z"/>
		</g>
		<g>
			<path d="M102.0141602,98.328125l0.0625,2.65625h-0.234375c-0.1132813-0.6669922-0.390625-1.203125-0.8339844-1.609375
				c-0.4414063-0.40625-0.9199219-0.609375-1.4355469-0.609375c-0.3984375,0-0.7128906,0.1064453-0.9453125,0.3183594
				c-0.2304688,0.2128906-0.3476563,0.4580078-0.3476563,0.734375c0,0.1757813,0.0410156,0.3320313,0.1230469,0.46875
				c0.1132813,0.1826172,0.2949219,0.3642578,0.5449219,0.5429688c0.1816406,0.1289063,0.6054688,0.3574219,1.2675781,0.6855469
				c0.9277344,0.4560547,1.5546875,0.8867188,1.8808594,1.2919922c0.3203125,0.4052734,0.4804688,0.8691406,0.4804688,1.3916016
				c0,0.6621094-0.2578125,1.2324219-0.7773438,1.7099609c-0.5175781,0.4775391-1.1757813,0.7158203-1.9726563,0.7158203
				c-0.25,0-0.4863281-0.0253906-0.7089844-0.0761719c-0.2226563-0.0517578-0.5019531-0.1484375-0.8378906-0.2900391
				c-0.1894531-0.0791016-0.34375-0.1181641-0.4648438-0.1181641c-0.1015625,0-0.2089844,0.0400391-0.3222656,0.1191406
				c-0.1132813,0.0800781-0.2050781,0.2011719-0.2753906,0.3652344h-0.203125v-3h0.203125
				c0.171875,0.84375,0.5039063,1.4863281,0.9941406,1.9296875c0.4902344,0.4423828,1.0195313,0.6640625,1.5859375,0.6640625
				c0.4375,0,0.7851563-0.1191406,1.046875-0.3564453c0.2597656-0.2382813,0.3886719-0.5146484,0.3886719-0.8310547
				c0-0.1875-0.0488281-0.3681641-0.1484375-0.5439453s-0.2519531-0.3427734-0.453125-0.5
				c-0.203125-0.1582031-0.5625-0.3642578-1.0761719-0.6181641c-0.7207031-0.3544922-1.2402344-0.65625-1.5566406-0.90625
				c-0.3164063-0.2490234-0.5585938-0.5273438-0.7285156-0.8359375s-0.2558594-0.6474609-0.2558594-1.0175781
				c0-0.6318359,0.2324219-1.1699219,0.6972656-1.6142578c0.4628906-0.4443359,1.0488281-0.6669922,1.7558594-0.6669922
				c0.2558594,0,0.5058594,0.03125,0.7480469,0.09375c0.1835938,0.046875,0.40625,0.1347656,0.6699219,0.2617188
				c0.2636719,0.1279297,0.4472656,0.1914063,0.5527344,0.1914063c0.1015625,0,0.1816406-0.03125,0.2402344-0.09375
				s0.1132813-0.2138672,0.1640625-0.453125H102.0141602z"/>
			<path d="M107.6899414,98.375c1.2675781-0.046875,2.2988281,0.3222656,3.0917969,1.1074219
				c0.7910156,0.7841797,1.1875,1.7666016,1.1875,2.9453125c0,1.0078125-0.2949219,1.8935547-0.8867188,2.6591797
				c-0.78125,1.0146484-1.8886719,1.5224609-3.3164063,1.5224609c-1.4316406,0-2.5390625-0.484375-3.3222656-1.4521484
				c-0.6191406-0.765625-0.9277344-1.6728516-0.9277344-2.7236328c0-1.1787109,0.4023438-2.1621094,1.2070313-2.9492188
				C105.527832,98.6982422,106.5161133,98.328125,107.6899414,98.375z M107.7602539,98.75
				c-0.7304688,0-1.2871094,0.3710938-1.6679688,1.1132813c-0.3105469,0.609375-0.4667969,1.484375-0.4667969,2.6240234
				c0,1.3554688,0.2402344,2.3564453,0.7207031,3.0048828c0.3339844,0.453125,0.8007813,0.6796875,1.4023438,0.6796875
				c0.4042969,0,0.7441406-0.0976563,1.015625-0.2929688c0.3457031-0.25,0.6152344-0.6484375,0.8066406-1.1972656
				c0.1933594-0.5488281,0.2890625-1.2646484,0.2890625-2.1474609c0-1.0498047-0.0976563-1.8359375-0.2949219-2.3574219
				s-0.4472656-0.8896484-0.7519531-1.1044922S108.1567383,98.75,107.7602539,98.75z"/>
		</g>
		<g>
			<path d="M15.6816406,98.328125l0.0625,2.65625h-0.234375c-0.1132813-0.6669922-0.3916016-1.203125-0.8339844-1.609375
				s-0.9208984-0.609375-1.4355469-0.609375c-0.3984375,0-0.7128906,0.1064453-0.9453125,0.3183594
				c-0.2314453,0.2128906-0.3476563,0.4580078-0.3476563,0.734375c0,0.1757813,0.0410156,0.3320313,0.1230469,0.46875
				c0.1123047,0.1826172,0.2939453,0.3642578,0.5439453,0.5429688c0.1826172,0.1289063,0.6054688,0.3574219,1.2685547,0.6855469
				c0.9277344,0.4560547,1.5546875,0.8867188,1.8798828,1.2919922c0.3203125,0.4052734,0.4814453,0.8691406,0.4814453,1.3916016
				c0,0.6621094-0.2587891,1.2324219-0.7773438,1.7099609c-0.5175781,0.4775391-1.1748047,0.7158203-1.9726563,0.7158203
				c-0.25,0-0.4873047-0.0253906-0.7099609-0.0761719c-0.2226563-0.0517578-0.5019531-0.1484375-0.8378906-0.2900391
				c-0.1875-0.0791016-0.3417969-0.1181641-0.4628906-0.1181641c-0.1025391,0-0.2099609,0.0400391-0.3232422,0.1191406
				c-0.1132813,0.0800781-0.2050781,0.2011719-0.2753906,0.3652344h-0.203125v-3h0.203125
				c0.171875,0.84375,0.5029297,1.4863281,0.9931641,1.9296875c0.4902344,0.4423828,1.0195313,0.6640625,1.5859375,0.6640625
				c0.4375,0,0.7871094-0.1191406,1.046875-0.3564453c0.2597656-0.2382813,0.3896484-0.5146484,0.3896484-0.8310547
				c0-0.1875-0.0498047-0.3681641-0.1494141-0.5439453s-0.25-0.3427734-0.453125-0.5
				c-0.203125-0.1582031-0.5615234-0.3642578-1.0761719-0.6181641c-0.7207031-0.3544922-1.2402344-0.65625-1.5566406-0.90625
				c-0.3164063-0.2490234-0.5585938-0.5273438-0.7285156-0.8359375s-0.2548828-0.6474609-0.2548828-1.0175781
				c0-0.6318359,0.2314453-1.1699219,0.6962891-1.6142578s1.0498047-0.6669922,1.7558594-0.6669922
				c0.2578125,0,0.5068359,0.03125,0.7490234,0.09375c0.1835938,0.046875,0.4072266,0.1347656,0.6699219,0.2617188
				C14.8164063,98.8115234,15.0009766,98.875,15.1064453,98.875c0.1005859,0,0.1806641-0.03125,0.2392578-0.09375
				s0.1132813-0.2138672,0.1640625-0.453125H15.6816406z"/>
			<path d="M28.6201172,98.5v0.203125c-0.1464844,0.0117188-0.2714844,0.0546875-0.3720703,0.1269531
				c-0.1015625,0.0722656-0.1904297,0.1826172-0.2685547,0.3320313c-0.0234375,0.046875-0.1445313,0.3496094-0.3652344,0.9091797
				L25.1181641,106.625h-0.2265625l-1.9667969-5.1621094L20.7490234,106.625h-0.1972656l-2.625-6.4882813
				c-0.265625-0.65625-0.4511719-1.0537109-0.5566406-1.1914063s-0.2832031-0.21875-0.5332031-0.2421875V98.5h3.4375v0.203125
				c-0.2773438,0.0078125-0.4619141,0.0507813-0.5537109,0.1269531c-0.0917969,0.0771484-0.1376953,0.1728516-0.1376953,0.2871094
				c0,0.1503906,0.0957031,0.4677734,0.2871094,0.953125l1.5595703,3.8544922l1.2558594-3.0263672l-0.3212891-0.8339844
				c-0.1796875-0.4628906-0.3183594-0.7724609-0.4160156-0.9277344s-0.2099609-0.2666016-0.3369141-0.3330078
				c-0.1269531-0.0673828-0.3134766-0.1005859-0.5595703-0.1005859V98.5h3.8378906v0.203125
				c-0.2695313,0.0039063-0.4628906,0.0253906-0.5800781,0.0654297c-0.0820313,0.0273438-0.1464844,0.0742188-0.1933594,0.1386719
				c-0.046875,0.0654297-0.0703125,0.1396484-0.0703125,0.2226563c0,0.0908203,0.0878906,0.3691406,0.2636719,0.8349609
				l1.4482422,3.7607422l1.2958984-3.4033203c0.1367188-0.3554688,0.2207031-0.5976563,0.2519531-0.7265625
				c0.03125-0.1308594,0.046875-0.25,0.046875-0.3613281c0-0.1611328-0.0546875-0.2880859-0.1640625-0.3808594
				c-0.109375-0.0917969-0.3183594-0.1425781-0.6269531-0.1503906V98.5H28.6201172z"/>
		</g>
		<g>
			<path d="M12.0419922,13.5l3.9091797,4.8955078V15.015625c0-0.4824219-0.0693359-0.8095703-0.2060547-0.9804688
				c-0.1894531-0.2285156-0.5058594-0.3398438-0.9501953-0.3320313V13.5h2.640625v0.203125
				c-0.3369141,0.0439453-0.5634766,0.0996094-0.6796875,0.1699219c-0.1152344,0.0683594-0.2060547,0.1816406-0.2705078,0.3378906
				s-0.0966797,0.4248047-0.0966797,0.8046875V21.625H16.1875l-5.3613281-6.5878906V20.0625
				c0,0.4658203,0.1054688,0.7792969,0.3173828,0.9433594C11.3554688,21.1679688,11.5976563,21.25,11.8701172,21.25h0.1904297
				v0.203125h-2.828125V21.25c0.4375-0.0039063,0.7421875-0.0957031,0.9140625-0.2744141s0.2578125-0.4833984,0.2578125-0.9130859
				v-5.5703125l-0.1884766-0.2324219c-0.1679688-0.2226563-0.3164063-0.3691406-0.4453125-0.4394531
				c-0.1289063-0.0693359-0.3144531-0.109375-0.5566406-0.1171875V13.5H12.0419922z"/>
			<path d="M29.6162109,13.5v0.203125c-0.1464844,0.0117188-0.2714844,0.0546875-0.3720703,0.1269531
				c-0.1015625,0.0722656-0.1904297,0.1826172-0.2685547,0.3320313c-0.0234375,0.046875-0.1445313,0.3496094-0.3652344,0.9091797
				L26.1142578,21.625h-0.2265625l-1.9667969-5.1621094L21.7451172,21.625h-0.1972656l-2.625-6.4882813
				c-0.265625-0.65625-0.4511719-1.0537109-0.5566406-1.1914063s-0.2832031-0.21875-0.5332031-0.2421875V13.5h3.4375v0.203125
				c-0.2773438,0.0078125-0.4619141,0.0507813-0.5537109,0.1269531c-0.0917969,0.0771484-0.1376953,0.1728516-0.1376953,0.2871094
				c0,0.1503906,0.0957031,0.4677734,0.2871094,0.953125l1.5595703,3.8544922l1.2558594-3.0263672l-0.3212891-0.8339844
				c-0.1796875-0.4628906-0.3183594-0.7724609-0.4160156-0.9277344s-0.2099609-0.2666016-0.3369141-0.3330078
				c-0.1269531-0.0673828-0.3134766-0.1005859-0.5595703-0.1005859V13.5h3.8378906v0.203125
				c-0.2695313,0.0039063-0.4628906,0.0253906-0.5800781,0.0654297c-0.0820313,0.0273438-0.1464844,0.0742188-0.1933594,0.1386719
				c-0.046875,0.0654297-0.0703125,0.1396484-0.0703125,0.2226563c0,0.0908203,0.0878906,0.3691406,0.2636719,0.8349609
				l1.4482422,3.7607422l1.2958984-3.4033203c0.1367188-0.3554688,0.2207031-0.5976563,0.2519531-0.7265625
				c0.03125-0.1308594,0.046875-0.25,0.046875-0.3613281c0-0.1611328-0.0546875-0.2880859-0.1640625-0.3808594
				c-0.109375-0.0917969-0.3183594-0.1425781-0.6269531-0.1503906V13.5H29.6162109z"/>
		</g>
</svg>